<svg version="1.1" id="Layer_1" xmlns="http://www.w3.org/2000/svg" xmlns:xlink="http://www.w3.org/1999/xlink" x="0px" y="0px"
	 width="100%" viewBox="0 0 900 255" enable-background="new 0 0 900 255" xml:space="preserve">
<path fill="#0000" opacity="1.000000" stroke="none" 
	d="
M296.000000,256.000000 
	C197.727722,256.000000 99.455429,256.000000 1.091574,256.000000 
	C1.091574,171.113907 1.091574,86.227684 1.091574,1.000000 
	C52.353722,1.000000 103.708206,1.000000 155.531296,1.449459 
	C157.001892,12.687746 157.962845,23.480604 159.021179,34.263901 
	C159.660980,40.782742 160.426178,47.289921 161.229324,53.790691 
	C161.286407,54.252911 162.120651,54.619110 162.658905,55.352573 
	C162.629990,56.100304 162.535706,56.525414 162.149292,57.067635 
	C161.597214,59.129986 161.337265,61.075233 161.092789,63.419334 
	C160.949905,64.865639 160.791550,65.913086 160.368103,67.017212 
	C160.091797,67.722038 160.080612,68.370193 160.080978,69.421967 
	C158.319000,78.282440 156.704376,86.777031 154.709396,95.181328 
	C153.598740,99.860229 151.566116,100.513458 147.583847,97.751549 
	C139.385208,92.065392 131.333359,86.167351 123.123878,80.497261 
	C120.906044,78.965439 120.491936,77.706421 121.794518,75.184525 
	C125.842781,67.346764 129.580963,59.348389 133.414246,51.400181 
	C136.332550,45.349178 139.212448,39.279667 142.639252,32.109871 
	C138.275391,32.109871 134.994171,32.417725 131.795975,32.033836 
	C127.567291,31.526253 125.653336,33.425602 123.978516,37.087303 
	C119.620834,46.614597 114.824097,55.941696 110.160332,65.327698 
	C109.461555,66.734016 108.535606,68.027458 107.587372,69.581917 
	C100.984619,64.954865 94.919479,60.601421 88.749512,56.401989 
	C75.390648,47.309605 80.075348,46.387074 67.316795,57.170197 
	C67.001389,57.436775 66.886070,57.940090 66.623962,58.433685 
	C76.942451,65.671638 87.100739,72.897934 97.380806,79.946609 
	C100.451492,82.052078 101.656555,83.931274 99.522270,87.649284 
	C96.462067,92.980324 94.045044,98.680252 91.346237,104.219185 
	C89.341614,108.333405 87.325584,112.442070 85.069702,117.053963 
	C70.644211,108.060318 56.826542,99.445618 42.698185,90.637215 
	C41.291233,94.107941 40.403599,96.614578 39.274929,99.007530 
	C37.581589,102.597672 37.982586,105.212379 41.795403,107.276596 
	C46.175533,109.647957 50.322849,112.456169 54.526665,115.144417 
	C58.474812,117.669174 62.364761,120.284943 67.479057,123.649223 
	C59.074581,126.130760 52.107132,128.123260 45.180145,130.247681 
	C33.299316,133.891373 33.306328,133.926498 35.093513,146.211639 
	C35.161255,146.677292 35.432690,147.113327 35.885509,148.267288 
	C48.463451,144.684601 61.047863,141.100082 74.779770,137.188690 
	C73.690620,140.093811 73.234993,141.665466 72.535416,143.119766 
	C65.840698,157.036682 59.063980,170.914413 52.447987,184.868454 
	C51.832291,186.167007 51.497688,188.346573 52.169437,189.373154 
	C54.561947,193.029495 57.445847,196.364304 60.736454,200.580231 
	C63.998898,194.114105 66.894844,188.550049 69.634140,182.909912 
	C76.088150,169.621307 82.479744,156.302307 88.867279,142.981537 
	C90.242508,140.113617 91.699287,138.854996 94.996422,140.988342 
	C106.583580,148.485519 118.343582,155.715225 130.010895,163.089310 
	C131.304108,163.906677 132.423294,164.999405 134.077515,166.329803 
	C131.472809,168.109924 129.653961,169.544525 127.665268,170.682220 
	C109.511024,181.068054 91.312073,191.375732 73.159119,201.763779 
	C65.294212,206.264465 65.314293,206.555466 72.723862,212.132156 
	C75.278496,214.054840 77.239120,216.721634 81.353714,214.161163 
	C91.504707,207.844345 101.975639,202.039597 112.347717,196.080795 
	C120.656837,191.307190 129.009705,186.609726 138.142914,181.424393 
	C134.717316,198.891312 131.457321,215.513733 128.051941,232.877548 
	C131.190887,232.877548 133.643723,232.878220 136.096558,232.877441 
	C143.709167,232.875046 143.574936,232.850906 144.875885,225.548630 
	C146.827820,214.592377 148.915909,203.658768 151.099228,192.746155 
	C151.985336,188.317291 153.273575,183.968857 154.473267,179.209137 
	C156.190186,180.052963 157.105988,180.403961 157.919144,180.917496 
	C171.138016,189.265762 184.295761,197.712997 197.617249,205.893738 
	C199.180176,206.853546 202.037064,207.175537 203.581390,206.390762 
	C206.805496,204.752319 209.553207,202.176483 212.496628,199.985748 
	C212.172028,199.145920 211.847427,198.306107 211.522827,197.466278 
	C195.890625,187.484360 180.258438,177.502441 163.888931,167.049713 
	C174.259674,161.083878 183.530075,155.600342 192.998840,150.483917 
	C194.263275,149.800674 196.891022,150.444031 198.276962,151.378479 
	C206.547714,156.954865 214.622787,162.820663 222.804611,168.530487 
	C224.484680,169.702957 226.339035,170.625671 228.200806,171.714828 
	C234.352219,155.379227 235.193420,159.560638 222.586609,150.485275 
	C222.318085,150.291992 221.984848,150.187668 221.719772,149.990723 
	C217.955612,147.194092 214.198013,144.388626 209.713257,141.044220 
	C217.567810,136.313034 224.412796,132.286011 231.134995,128.063477 
	C232.555191,127.171379 234.521088,125.565994 234.524155,124.285164 
	C234.535019,119.747818 233.804520,115.208710 233.299820,110.113388 
	C231.314941,110.922112 230.361679,111.190193 229.528900,111.668175 
	C219.600204,117.366905 209.625259,122.989861 199.809235,128.877457 
	C196.438034,130.899506 193.760406,130.628647 190.697113,128.385696 
	C183.861603,123.380707 176.898727,118.547333 169.918442,113.744743 
	C168.860016,113.016518 167.430298,112.827919 166.172318,112.389717 
	C166.659805,111.696259 167.147278,111.002808 167.634766,110.309349 
	C169.124191,109.703941 170.574051,108.963280 172.109192,108.514114 
	C186.931320,104.177315 201.735962,99.775398 216.610855,95.625977 
	C227.375076,92.623238 227.951416,91.665260 221.790314,82.480522 
	C220.899597,81.152672 218.099182,80.040710 216.551010,80.403122 
	C209.788040,81.986298 203.170578,84.183640 196.482178,86.094635 
	C187.945038,88.533875 179.390442,90.912056 170.114777,93.521530 
	C172.518906,81.397133 174.740585,70.192795 177.369141,58.990692 
	C179.386444,58.719528 181.343460,58.940372 182.551544,58.093208 
	C190.915253,52.228188 199.173843,46.208763 207.354736,40.089874 
	C210.422028,37.795681 211.254684,34.603508 208.785278,31.424669 
	C206.310226,28.238586 203.092834,26.828571 199.233704,29.381853 
	C195.096481,32.119129 191.043961,34.991135 186.828217,37.600334 
	C184.493332,39.045429 181.900162,40.073185 179.083893,41.308884 
	C177.148712,40.611023 175.553024,39.893341 173.930237,38.748795 
	C172.602066,25.881285 171.301025,13.440642 170.000000,1.000000 
	C171.388885,1.000000 172.777786,1.000000 174.538101,1.382410 
	C175.320389,4.503806 174.908524,7.893773 176.399521,9.778070 
	C177.616486,11.316086 181.349884,11.962826 183.531952,11.378388 
	C186.769104,10.511357 187.365707,7.208471 187.022659,3.983383 
	C186.917969,2.999254 187.002258,1.995024 187.000000,1.000000 
	C198.020889,1.000000 209.041794,1.000000 220.533051,1.368311 
	C223.252075,5.338437 225.213608,9.176246 227.886917,12.429085 
	C228.998962,13.782195 231.629150,13.887623 233.569000,14.560401 
	C233.677505,12.500815 234.324005,10.279447 233.765030,8.420578 
	C232.978821,5.806076 231.298157,3.460552 230.000000,1.000001 
	C232.041672,1.000000 234.083328,1.000000 236.619492,1.358372 
	C241.685806,6.457061 248.498779,5.648797 252.000000,1.000000 
	C385.354218,1.000000 518.708435,1.000000 652.538452,1.380500 
	C654.368652,8.424166 658.226868,13.674372 663.387329,17.633501 
	C667.189758,20.550726 671.949585,21.915489 677.004089,20.495327 
	C686.502075,17.826708 690.769836,11.911283 691.000000,1.000000 
	C760.949036,1.000000 830.898010,1.000000 900.923523,1.000000 
	C900.923523,85.887062 900.923523,170.774216 900.923523,256.000000 
	C855.979675,256.000000 810.958496,256.000000 765.435791,255.644287 
	C761.338867,249.764694 758.018799,244.026291 753.981812,238.846634 
	C752.758240,237.276672 749.552063,237.251984 747.254028,236.519501 
	C747.418701,238.738220 746.927734,241.301804 747.877502,243.107651 
	C750.234558,247.589401 753.249390,251.725220 756.000000,256.000000 
	C754.285645,256.000000 752.571289,256.000000 750.393433,255.652405 
	C747.558105,251.982315 745.337158,248.537827 742.774414,245.369873 
	C739.906311,241.824448 737.453674,242.208939 734.780273,245.939240 
	C734.058289,246.946579 732.536133,247.504410 731.272217,247.976807 
	C726.986206,249.578705 722.515076,250.874619 721.000000,256.000000 
	C582.312439,256.000000 443.624878,256.000000 304.431396,255.640533 
	C302.497040,254.204193 300.982300,252.191467 299.664490,252.313080 
	C298.340820,252.435226 297.213409,254.683472 296.000000,256.000000 
M551.851074,104.003838 
	C559.818420,104.465965 565.943542,100.722595 571.177307,95.263092 
	C576.309448,89.909554 573.483337,78.063904 566.530029,75.408997 
	C565.855225,75.151344 564.759277,75.172356 564.205322,75.559624 
	C561.218262,77.647667 558.240356,79.777298 555.500122,82.168549 
	C554.863037,82.724495 554.669495,84.737503 555.170410,85.385139 
	C555.684570,86.049881 557.339355,86.129799 558.419922,85.967064 
	C559.320129,85.831474 560.068665,84.621132 560.960571,84.512489 
	C562.629761,84.309166 565.476318,84.000610 565.838684,84.728516 
	C566.805115,86.670189 567.839417,90.077698 566.863098,91.248581 
	C559.289917,100.331154 552.175964,101.517906 544.131531,92.521698 
	C539.700684,87.566666 539.014893,80.536354 542.081665,76.463753 
	C546.386292,70.747345 551.439514,69.564758 558.596313,72.833809 
	C559.676758,71.650703 560.832275,70.385361 562.181702,68.907692 
	C557.724854,65.764198 553.614929,64.154945 548.697571,65.625191 
	C534.422668,69.893173 529.848633,83.583054 538.930115,95.312981 
	C541.366394,98.459732 544.256775,101.254951 546.201050,104.492256 
	C543.474182,104.387306 540.747314,104.282356 537.994385,103.410912 
	C533.567932,89.675232 517.682495,83.034691 506.397491,93.966682 
	C505.654358,94.686600 503.881104,94.343147 502.552521,93.688606 
	C503.277161,84.710846 503.277161,84.710808 512.385071,84.710480 
	C515.382751,84.710373 518.380432,84.710579 521.378113,84.710449 
	C529.447754,84.710114 529.164490,84.638489 531.173157,76.690788 
	C532.196411,72.641876 530.970276,71.496971 527.285278,71.499023 
	C502.137939,71.513054 476.990356,71.463600 451.843842,71.607101 
	C450.327545,71.615746 447.971497,72.758263 447.473541,73.974113 
	C446.194702,77.096519 445.742126,80.557335 444.751465,84.765495 
	C453.389496,84.765495 461.115723,84.765495 469.044495,84.765495 
	C469.044495,86.626884 469.246338,87.805084 469.014008,88.890335 
	C465.920441,103.341042 462.765106,117.778534 459.627014,132.219727 
	C457.159760,143.574051 454.631744,154.915726 452.256989,166.289352 
	C451.143036,171.624481 451.925049,172.482239 457.299652,172.504822 
	C464.960297,172.537018 472.625641,172.358261 480.280029,172.579361 
	C483.989319,172.686508 485.907776,171.150040 486.594147,167.707886 
	C487.437775,163.476944 488.247314,159.239197 489.706757,154.916992 
	C489.820801,153.951660 489.934875,152.986313 490.024994,151.346268 
	C490.168274,150.923035 490.311523,150.499802 491.152924,150.038727 
	C497.123901,146.343536 503.183289,142.779160 508.996887,138.851089 
	C510.274994,137.987518 510.680023,135.831772 511.487122,134.271088 
	C509.633484,134.374725 507.519012,133.937958 505.975098,134.683228 
	C501.324066,136.928421 496.895142,139.633606 492.327576,141.388031 
	C492.430206,140.623627 492.532837,139.859238 493.288025,138.740005 
	C493.525909,136.828903 493.763763,134.917786 493.946198,132.334717 
	C494.039764,131.897247 494.133331,131.459778 494.941467,130.830994 
	C495.182465,129.694397 495.423492,128.557816 495.560913,126.650299 
	C495.740784,125.103905 495.920685,123.557503 496.728668,121.922348 
	C496.847321,120.959152 496.966003,119.995949 497.041016,118.220924 
	C497.250488,117.166367 497.459930,116.111816 498.218323,114.809090 
	C500.125305,112.363312 501.336182,112.826202 502.825531,115.441628 
	C506.015717,121.043861 510.254822,125.662750 516.093262,127.527046 
	C516.398132,129.638733 516.637329,131.296082 516.936646,133.766922 
	C516.729797,134.824768 516.523010,135.882614 515.774963,137.185654 
	C515.505188,138.785141 515.235413,140.384628 515.020935,142.788666 
	C514.834961,143.838852 514.648987,144.889053 513.985168,146.064621 
	C513.925232,146.687073 513.865295,147.309540 513.840698,148.638382 
	C513.668640,149.072189 513.496582,149.505981 512.875610,150.110886 
	C512.912842,150.737595 512.950073,151.364319 513.037781,152.662323 
	C512.940430,153.098083 512.843140,153.533844 512.037842,154.164474 
	C511.802917,155.296677 511.567963,156.428879 511.423187,158.362015 
	C510.865143,161.287155 510.431000,164.242889 509.718231,167.129837 
	C508.788391,170.895859 509.613434,172.751251 513.985718,172.580673 
	C520.629700,172.321472 527.291138,172.514557 533.945190,172.512924 
	C541.281311,172.511139 541.524048,172.045212 542.905090,165.002335 
	C545.265686,152.964417 547.961365,140.991974 550.542664,128.997711 
	C551.416992,124.934731 553.304382,121.781837 558.040649,121.792374 
	C563.123474,121.803688 562.640869,126.281235 563.672302,129.326187 
	C564.682983,132.309769 564.199951,136.801895 566.133911,138.206253 
	C568.351807,139.816788 572.507507,138.761963 575.821655,138.856979 
	C576.486511,138.876053 577.156555,138.810074 577.817078,138.866653 
	C580.917175,139.132248 582.294373,137.519333 582.892700,134.640549 
	C584.613770,126.359924 586.379822,118.086266 588.316162,109.854103 
	C588.991943,106.981300 587.907532,105.599731 585.462097,104.402855 
	C578.788879,101.136749 572.167053,102.947121 564.791260,104.147018 
	C564.191101,104.735703 563.591003,105.324387 562.394714,106.219070 
	C559.393799,108.911476 556.392944,111.603889 552.779907,113.857040 
	C551.944763,112.560730 551.109619,111.264420 550.065979,109.323929 
	C550.061523,108.874939 550.057129,108.425941 550.582520,107.511208 
	C550.715149,106.341583 550.847839,105.171959 551.851074,104.003838 
M827.012634,81.394646 
	C824.786316,91.712997 822.559998,102.031349 820.389648,112.090233 
	C816.178101,109.011017 813.254761,105.666512 809.617371,104.440643 
	C798.726746,100.770271 788.173401,102.375313 780.164673,110.927261 
	C766.727905,125.275383 763.838196,142.880692 767.493347,161.549011 
	C768.660828,167.512085 773.758423,171.592361 779.921875,172.583313 
	C790.474121,174.279892 800.585327,173.352036 808.503662,164.810150 
	C809.229004,164.027695 810.264099,163.532394 811.463440,162.686493 
	C812.018127,164.158691 812.587524,165.174759 812.776489,166.257248 
	C813.576965,170.843597 816.078247,172.522293 820.797668,172.098053 
	C825.755920,171.652298 830.789490,171.870911 835.781921,172.040543 
	C838.958984,172.148514 840.404602,171.189850 841.120178,167.783524 
	C847.235168,138.676697 853.611450,109.624855 859.839905,80.541641 
	C860.818176,75.973900 861.445984,71.331100 862.334290,66.148643 
	C851.836487,66.148643 842.530640,66.054718 833.231995,66.271477 
	C832.111938,66.297592 830.420715,67.808334 830.044250,68.970955 
	C828.820618,72.750633 828.084717,76.688225 827.012634,81.394646 
M419.765564,170.440964 
	C423.577728,166.428040 428.267090,162.937088 431.027374,158.298233 
	C437.667267,147.139435 439.245331,134.543198 438.786865,121.741821 
	C438.676544,118.661751 437.954681,115.405991 436.690369,112.602509 
	C433.138214,104.726135 422.830811,100.610130 412.614014,103.750153 
	C405.796967,105.845291 399.482178,109.574509 392.510040,112.770721 
	C392.220215,112.145660 391.190369,110.874992 391.088715,109.533936 
	C390.727753,104.773499 387.888611,104.066940 383.865448,104.266487 
	C378.880493,104.513725 373.852753,104.609947 368.883179,104.239349 
	C364.599945,103.919945 363.050049,105.705475 362.344666,109.682060 
	C360.662720,119.163910 358.656708,128.589859 356.689087,138.019104 
	C352.720001,157.039749 348.678833,176.045380 344.712250,195.066559 
	C344.493774,196.114304 344.684052,197.247299 344.684052,198.891800 
	C353.870636,198.891800 362.828186,198.779770 371.780334,198.951218 
	C375.010712,199.013092 376.441772,198.047058 377.103851,194.695328 
	C379.182678,184.171341 381.662750,173.726624 384.140015,162.563736 
	C394.410339,173.159714 405.932617,175.751389 419.765564,170.440964 
M302.918823,99.636749 
	C304.600861,92.021774 306.158112,84.376160 308.017029,76.804611 
	C308.961975,72.955780 307.501770,71.517632 303.878693,71.512993 
	C298.046448,71.505516 292.214203,71.502083 286.381958,71.501366 
	C273.362396,71.499748 272.970459,71.417625 270.343903,83.784531 
	C266.099976,103.766701 262.008301,123.800911 258.670288,143.948654 
	C256.531464,156.858383 261.210785,168.568497 276.171661,171.226501 
	C285.215729,172.833313 294.622284,172.881958 303.859955,172.813614 
	C321.760559,172.681168 337.505615,160.314514 341.666687,142.850479 
	C346.594513,122.168640 350.890411,101.335289 355.349091,80.543777 
	C355.914825,77.905502 355.809174,75.123245 356.014587,72.407692 
	C352.245392,72.168274 348.459564,71.643875 344.717072,71.862152 
	C343.586182,71.928093 341.898834,73.909027 341.612152,75.256554 
	C337.982391,92.318268 334.750824,109.466064 331.004547,126.501045 
	C329.270050,134.387924 327.593567,142.532043 324.167389,149.740402 
	C319.912323,158.692764 309.977020,161.390274 301.042633,157.668045 
	C294.121643,154.784637 292.215729,149.100296 294.605408,138.460526 
	C294.751373,137.810699 294.929871,137.168091 295.070404,136.517181 
	C297.663483,124.504982 300.253113,112.492035 302.918823,99.636749 
M708.494934,148.208649 
	C709.945068,141.387466 711.691711,134.611618 712.743896,127.729591 
	C713.478027,122.927559 716.306519,120.339188 720.272583,118.629074 
	C724.304016,116.890823 727.200134,118.881149 727.227966,123.352150 
	C727.243347,125.828758 726.970459,128.354614 726.454895,130.779053 
	C723.901001,142.790283 721.274231,154.786743 718.559204,166.762589 
	C717.675659,170.660034 718.273621,172.764786 722.986816,172.583649 
	C730.135315,172.308929 737.312256,172.284515 744.457214,172.601868 
	C748.404968,172.777237 750.311890,171.304794 751.053528,167.595245 
	C754.111328,152.301392 757.515930,137.070419 760.233704,121.717323 
	C762.027283,111.585541 755.905701,104.390419 745.730896,102.986610 
	C735.250305,101.540604 726.534241,105.355759 718.421204,111.392586 
	C714.552490,114.271271 713.762817,114.029839 712.782532,109.208023 
	C712.080933,105.756607 710.613708,104.037727 706.758240,104.245903 
	C701.114014,104.550667 695.435669,104.475182 689.782715,104.266548 
	C686.533447,104.146629 685.112671,105.235115 684.436462,108.532654 
	C680.403748,128.199112 676.289124,147.851776 671.856445,167.430832 
	C670.903442,171.640488 672.364319,172.523071 675.894653,172.514694 
	C683.553162,172.496521 691.212280,172.449539 698.869812,172.538742 
	C702.103210,172.576401 703.615417,171.251984 704.193237,167.995468 
	C705.322815,161.629196 706.851685,155.333755 708.494934,148.208649 
M657.348145,140.746964 
	C666.151917,140.740723 667.285522,139.811951 669.239380,131.019394 
	C669.528137,129.720154 669.855774,128.429306 670.129517,127.127014 
	C672.334656,116.634315 665.541992,106.458336 655.057312,104.384026 
	C643.836060,102.163986 632.636047,102.046562 621.406921,104.308289 
	C597.899475,109.043053 585.925049,126.122543 588.606262,149.457611 
	C589.800232,159.848404 596.005371,167.658386 606.000977,170.621582 
	C620.778870,175.002472 635.902283,174.349075 650.687134,169.953842 
	C659.748596,167.260056 664.318665,159.280273 662.949097,149.054642 
	C656.074585,149.054642 649.117310,149.171997 642.167297,148.998611 
	C639.265686,148.926239 637.730957,149.996567 636.371277,152.555084 
	C634.915527,155.294327 633.023560,158.080017 630.623901,159.949234 
	C628.780457,161.385162 625.647583,162.303833 623.481567,161.790985 
	C622.015564,161.443893 620.597351,158.309418 620.286621,156.251175 
	C619.771545,152.840179 620.063293,149.287720 620.205078,145.802597 
	C620.349915,142.242264 622.029541,140.584106 625.929504,140.671890 
	C636.078186,140.900330 646.235413,140.747299 657.348145,140.746964 
M574.050598,46.454891 
	C566.213867,52.521893 565.355469,60.554092 569.297241,68.676926 
	C572.311646,74.888580 577.056824,80.416557 584.917358,80.963852 
	C600.099731,82.020935 609.515930,68.566872 603.332581,54.735985 
	C597.883728,42.547741 585.185120,37.619827 574.050598,46.454891 
M605.944641,31.627760 
	C608.283569,41.037300 610.555237,50.464619 613.034851,59.836926 
	C613.400635,61.219681 614.921570,63.484783 615.615234,63.381180 
	C618.214233,62.993004 619.594055,61.395077 618.314636,58.376087 
	C616.196167,53.377342 618.080200,49.855320 622.771545,47.531086 
	C623.800903,47.021126 624.858154,46.406013 625.640869,45.588730 
	C628.408447,42.698803 630.949219,42.105690 634.098083,45.286114 
	C635.205994,46.405102 637.388733,46.710773 639.123657,46.849331 
	C639.954834,46.915714 641.401062,45.870411 641.624878,45.066010 
	C641.840820,44.289825 641.104553,42.789364 640.337524,42.268600 
	C630.258057,35.425301 620.099060,28.699305 610.227234,22.121944 
	C605.928650,24.008039 603.638550,26.384752 605.944641,31.627760 
M198.751404,21.797443 
	C204.240784,24.460905 209.858566,26.894016 215.179367,29.859915 
	C219.523254,32.281273 222.581482,30.811369 224.986038,27.351768 
	C227.478027,23.766365 226.066666,20.280005 222.740692,18.408171 
	C214.975906,14.038203 207.047104,9.896400 198.912125,6.274436 
	C194.909637,4.492393 190.298874,6.783972 189.194397,9.923074 
	C187.735703,14.068906 189.677628,17.602501 194.550018,19.732702 
	C195.750397,20.257505 196.910980,20.873308 198.751404,21.797443 
M627.074402,10.463284 
	C627.332214,12.079901 627.107971,14.012097 627.926147,15.261818 
	C633.181091,23.288120 638.556824,31.243231 644.199341,38.998737 
	C644.965942,40.052525 647.443604,39.861435 649.129028,40.246769 
	C649.337646,38.683033 650.299011,36.604198 649.636780,35.636326 
	C643.848022,27.176012 637.836426,18.863630 631.670654,10.673144 
	C631.064392,9.867836 628.984253,10.172044 627.074402,10.463284 
M744.522217,232.210434 
	C747.121643,231.126541 747.660889,229.148071 745.926086,227.192886 
	C744.977905,226.124283 742.126709,225.074356 741.716003,225.509415 
	C740.443542,226.857590 739.929382,228.921448 739.120850,230.707489 
	C740.690674,231.323761 742.260437,231.940048 744.522217,232.210434 
M297.695923,245.667358 
	C297.202850,245.019592 296.737854,244.348022 296.211609,243.728424 
	C294.464142,241.671051 292.398224,241.394638 290.959259,243.718658 
	C290.153931,245.019257 290.422516,246.984818 290.207214,248.650742 
	C292.081665,248.651428 293.992615,248.863266 295.812592,248.548767 
	C296.539764,248.423111 297.066254,247.136429 297.695923,245.667358 
M661.951660,28.682739 
	C660.315857,27.845793 658.680115,27.008848 657.044312,26.171890 
	C656.377625,27.498173 655.173096,28.844400 655.221313,30.144146 
	C655.257263,31.112465 657.359436,32.977234 657.770020,32.786057 
	C659.343994,32.053242 660.606628,30.651745 661.951660,28.682739 
z"/>


<path fill="#6197D5" opacity="1.000000" stroke="none" 
	d="
M162.658905,55.352573 
	C163.980194,49.187916 165.366852,43.345875 166.912140,36.835476 
	C169.048859,37.598396 171.126480,38.340221 173.580719,39.128853 
	C175.553024,39.893341 177.148712,40.611023 179.204849,41.693970 
	C178.764297,47.702312 177.863281,53.345383 176.962280,58.988457 
	C174.740585,70.192795 172.518906,81.397133 170.114777,93.521530 
	C179.390442,90.912056 187.945038,88.533875 196.482178,86.094635 
	C203.170578,84.183640 209.788040,81.986298 216.551010,80.403122 
	C218.099182,80.040710 220.899597,81.152672 221.790314,82.480522 
	C227.951416,91.665260 227.375076,92.623238 216.610855,95.625977 
	C201.735962,99.775398 186.931320,104.177315 172.109192,108.514114 
	C170.574051,108.963280 169.124191,109.703941 167.634766,110.309349 
	C167.147278,111.002808 166.659805,111.696259 166.172318,112.389717 
	C167.430298,112.827919 168.860016,113.016518 169.918442,113.744743 
	C176.898727,118.547333 183.861603,123.380707 190.697113,128.385696 
	C193.760406,130.628647 196.438034,130.899506 199.809235,128.877457 
	C209.625259,122.989861 219.600204,117.366905 229.528900,111.668175 
	C230.361679,111.190193 231.314941,110.922112 233.299820,110.113388 
	C233.804520,115.208710 234.535019,119.747818 234.524155,124.285164 
	C234.521088,125.565994 232.555191,127.171379 231.134995,128.063477 
	C224.412796,132.286011 217.567810,136.313034 209.713257,141.044220 
	C214.198013,144.388626 217.955612,147.194092 221.719772,149.990723 
	C221.984848,150.187668 222.318085,150.291992 222.586609,150.485275 
	C235.193420,159.560638 234.352219,155.379227 228.200806,171.714828 
	C226.339035,170.625671 224.484680,169.702957 222.804611,168.530487 
	C214.622787,162.820663 206.547714,156.954865 198.276962,151.378479 
	C196.891022,150.444031 194.263275,149.800674 192.998840,150.483917 
	C183.530075,155.600342 174.259674,161.083878 163.888931,167.049713 
	C180.258438,177.502441 195.890625,187.484360 211.522827,197.466278 
	C211.847427,198.306107 212.172028,199.145920 212.496628,199.985748 
	C209.553207,202.176483 206.805496,204.752319 203.581390,206.390762 
	C202.037064,207.175537 199.180176,206.853546 197.617249,205.893738 
	C184.295761,197.712997 171.138016,189.265762 157.919144,180.917496 
	C157.105988,180.403961 156.190186,180.052963 154.473267,179.209137 
	C153.273575,183.968857 151.985336,188.317291 151.099228,192.746155 
	C148.915909,203.658768 146.827820,214.592377 144.875885,225.548630 
	C143.574936,232.850906 143.709167,232.875046 136.096558,232.877441 
	C133.643723,232.878220 131.190887,232.877548 128.051941,232.877548 
	C131.457321,215.513733 134.717316,198.891312 138.142914,181.424393 
	C129.009705,186.609726 120.656837,191.307190 112.347717,196.080795 
	C101.975639,202.039597 91.504707,207.844345 81.353714,214.161163 
	C77.239120,216.721634 75.278496,214.054840 72.723862,212.132156 
	C65.314293,206.555466 65.294212,206.264465 73.159119,201.763779 
	C91.312073,191.375732 109.511024,181.068054 127.665268,170.682220 
	C129.653961,169.544525 131.472809,168.109924 134.077515,166.329803 
	C132.423294,164.999405 131.304108,163.906677 130.010895,163.089310 
	C118.343582,155.715225 106.583580,148.485519 94.996422,140.988342 
	C91.699287,138.854996 90.242508,140.113617 88.867279,142.981537 
	C82.479744,156.302307 76.088150,169.621307 69.634140,182.909912 
	C66.894844,188.550049 63.998898,194.114105 60.736454,200.580231 
	C57.445847,196.364304 54.561947,193.029495 52.169437,189.373154 
	C51.497688,188.346573 51.832291,186.167007 52.447987,184.868454 
	C59.063980,170.914413 65.840698,157.036682 72.535416,143.119766 
	C73.234993,141.665466 73.690620,140.093811 74.779770,137.188690 
	C61.047863,141.100082 48.463451,144.684601 35.885509,148.267288 
	C35.432690,147.113327 35.161255,146.677292 35.093513,146.211639 
	C33.306328,133.926498 33.299316,133.891373 45.180145,130.247681 
	C52.107132,128.123260 59.074581,126.130760 67.479057,123.649223 
	C62.364761,120.284943 58.474812,117.669174 54.526665,115.144417 
	C50.322849,112.456169 46.175533,109.647957 41.795403,107.276596 
	C37.982586,105.212379 37.581589,102.597672 39.274929,99.007530 
	C40.403599,96.614578 41.291233,94.107941 42.698185,90.637215 
	C56.826542,99.445618 70.644211,108.060318 85.069702,117.053963 
	C87.325584,112.442070 89.341614,108.333405 91.346237,104.219185 
	C94.045044,98.680252 96.462067,92.980324 99.522270,87.649284 
	C101.656555,83.931274 100.451492,82.052078 97.380806,79.946609 
	C87.100739,72.897934 76.942451,65.671638 66.623962,58.433685 
	C66.886070,57.940090 67.001389,57.436775 67.316795,57.170197 
	C80.075348,46.387074 75.390648,47.309605 88.749512,56.401989 
	C94.919479,60.601421 100.984619,64.954865 107.587372,69.581917 
	C108.535606,68.027458 109.461555,66.734016 110.160332,65.327698 
	C114.824097,55.941696 119.620834,46.614597 123.978516,37.087303 
	C125.653336,33.425602 127.567291,31.526253 131.795975,32.033836 
	C134.994171,32.417725 138.275391,32.109871 142.639252,32.109871 
	C139.212448,39.279667 136.332550,45.349178 133.414246,51.400181 
	C129.580963,59.348389 125.842781,67.346764 121.794518,75.184525 
	C120.491936,77.706421 120.906044,78.965439 123.123878,80.497261 
	C131.333359,86.167351 139.385208,92.065392 147.583847,97.751549 
	C151.566116,100.513458 153.598740,99.860229 154.709396,95.181328 
	C156.704376,86.777031 158.319000,78.282440 160.322205,69.248260 
	C160.578979,68.100815 160.606094,67.530670 160.633209,66.960533 
	C160.791550,65.913086 160.949905,64.865639 161.351715,63.177643 
	C161.877258,60.674908 162.159348,58.812714 162.441422,56.950523 
	C162.535706,56.525414 162.629990,56.100304 162.658905,55.352573 
M108.373886,126.757088 
	C106.928101,127.324310 105.482323,127.891533 102.703873,128.981598 
	C116.657051,137.842484 129.455933,145.970352 142.767761,154.423950 
	C143.536316,152.404633 144.338577,150.950043 144.639984,149.398148 
	C146.502945,139.806213 148.340759,130.207428 149.998276,120.578445 
	C150.672791,116.659935 148.828476,115.201797 144.519867,116.387566 
	C132.682205,119.645378 120.899895,123.104317 108.373886,126.757088 
M111.779800,95.198097 
	C108.824738,100.887054 105.869675,106.576012 102.914604,112.264961 
	C103.185616,112.613205 103.456627,112.961441 103.727638,113.309685 
	C112.997864,110.699486 122.268097,108.089287 133.212936,105.007568 
	C126.480598,100.242409 120.934982,96.220108 115.215172,92.462975 
	C114.782486,92.178757 113.111221,93.780151 111.779800,95.198097 
M170.315186,131.150467 
	C168.122253,129.764938 165.929321,128.379410 163.090469,126.585793 
	C161.312958,135.556961 159.670258,143.847748 157.804565,153.264038 
	C166.294800,148.481766 173.710403,144.304810 181.981689,139.645874 
	C177.741379,136.557938 174.320679,134.066879 170.315186,131.150467 
z"/>
<path fill="#F7B83A" opacity="1.000000" stroke="none" 
	d="
M827.086792,80.979828 
	C828.084717,76.688225 828.820618,72.750633 830.044250,68.970955 
	C830.420715,67.808334 832.111938,66.297592 833.231995,66.271477 
	C842.530640,66.054718 851.836487,66.148643 862.334290,66.148643 
	C861.445984,71.331100 860.818176,75.973900 859.839905,80.541641 
	C853.611450,109.624855 847.235168,138.676697 841.120178,167.783524 
	C840.404602,171.189850 838.958984,172.148514 835.781921,172.040543 
	C830.789490,171.870911 825.755920,171.652298 820.797668,172.098053 
	C816.078247,172.522293 813.576965,170.843597 812.776489,166.257248 
	C812.587524,165.174759 812.018127,164.158691 811.463440,162.686493 
	C810.264099,163.532394 809.229004,164.027695 808.503662,164.810150 
	C800.585327,173.352036 790.474121,174.279892 779.921875,172.583313 
	C773.758423,171.592361 768.660828,167.512085 767.493347,161.549011 
	C763.838196,142.880692 766.727905,125.275383 780.164673,110.927261 
	C788.173401,102.375313 798.726746,100.770271 809.617371,104.440643 
	C813.254761,105.666512 816.178101,109.011017 820.389648,112.090233 
	C822.559998,102.031349 824.786316,91.712997 827.086792,80.979828 
M806.701477,120.068733 
	C799.186462,130.260040 797.682800,142.022842 798.297852,154.151642 
	C798.379578,155.762756 802.336182,158.787888 802.737183,158.520157 
	C806.289307,156.148880 811.025574,153.791245 812.384277,150.263443 
	C815.157898,143.062088 816.031433,135.132004 817.726501,127.510727 
	C818.443542,124.286613 818.052063,121.065903 814.919922,119.783882 
	C812.696167,118.873672 809.818054,119.562164 806.701477,120.068733 
z"/>
<path fill="#F7B83A" opacity="1.000000" stroke="none" 
	d="
M419.420776,170.605072 
	C405.932617,175.751389 394.410339,173.159714 384.140015,162.563736 
	C381.662750,173.726624 379.182678,184.171341 377.103851,194.695328 
	C376.441772,198.047058 375.010712,199.013092 371.780334,198.951218 
	C362.828186,198.779770 353.870636,198.891800 344.684052,198.891800 
	C344.684052,197.247299 344.493774,196.114304 344.712250,195.066559 
	C348.678833,176.045380 352.720001,157.039749 356.689087,138.019104 
	C358.656708,128.589859 360.662720,119.163910 362.344666,109.682060 
	C363.050049,105.705475 364.599945,103.919945 368.883179,104.239349 
	C373.852753,104.609947 378.880493,104.513725 383.865448,104.266487 
	C387.888611,104.066940 390.727753,104.773499 391.088715,109.533936 
	C391.190369,110.874992 392.220215,112.145660 392.510040,112.770721 
	C399.482178,109.574509 405.796967,105.845291 412.614014,103.750153 
	C422.830811,100.610130 433.138214,104.726135 436.690369,112.602509 
	C437.954681,115.405991 438.676544,118.661751 438.786865,121.741821 
	C439.245331,134.543198 437.667267,147.139435 431.027374,158.298233 
	C428.267090,162.937088 423.577728,166.428040 419.420776,170.605072 
M389.876007,133.336624 
	C388.830078,138.376038 388.129852,143.520844 386.635406,148.423523 
	C385.294434,152.822647 386.624847,155.920364 390.444672,157.385910 
	C394.380035,158.895813 397.472290,156.792831 399.482483,153.182999 
	C404.567474,144.051422 406.300354,134.126648 405.984039,123.852531 
	C405.837067,119.078995 402.114166,117.341515 397.844482,119.469757 
	C392.435822,122.165749 390.613373,126.958939 389.876007,133.336624 
z"/>
<path fill="#F7B83B" opacity="1.000000" stroke="none" 
	d="
M302.881165,100.057999 
	C300.253113,112.492035 297.663483,124.504982 295.070404,136.517181 
	C294.929871,137.168091 294.751373,137.810699 294.605408,138.460526 
	C292.215729,149.100296 294.121643,154.784637 301.042633,157.668045 
	C309.977020,161.390274 319.912323,158.692764 324.167389,149.740402 
	C327.593567,142.532043 329.270050,134.387924 331.004547,126.501045 
	C334.750824,109.466064 337.982391,92.318268 341.612152,75.256554 
	C341.898834,73.909027 343.586182,71.928093 344.717072,71.862152 
	C348.459564,71.643875 352.245392,72.168274 356.014587,72.407692 
	C355.809174,75.123245 355.914825,77.905502 355.349091,80.543777 
	C350.890411,101.335289 346.594513,122.168640 341.666687,142.850479 
	C337.505615,160.314514 321.760559,172.681168 303.859955,172.813614 
	C294.622284,172.881958 285.215729,172.833313 276.171661,171.226501 
	C261.210785,168.568497 256.531464,156.858383 258.670288,143.948654 
	C262.008301,123.800911 266.099976,103.766701 270.343903,83.784531 
	C272.970459,71.417625 273.362396,71.499748 286.381958,71.501366 
	C292.214203,71.502083 298.046448,71.505516 303.878693,71.512993 
	C307.501770,71.517632 308.961975,72.955780 308.017029,76.804611 
	C306.158112,84.376160 304.600861,92.021774 302.881165,100.057999 
z"/>
<path fill="#F7B83B" opacity="1.000000" stroke="none" 
	d="
M708.355103,148.608826 
	C706.851685,155.333755 705.322815,161.629196 704.193237,167.995468 
	C703.615417,171.251984 702.103210,172.576401 698.869812,172.538742 
	C691.212280,172.449539 683.553162,172.496521 675.894653,172.514694 
	C672.364319,172.523071 670.903442,171.640488 671.856445,167.430832 
	C676.289124,147.851776 680.403748,128.199112 684.436462,108.532654 
	C685.112671,105.235115 686.533447,104.146629 689.782715,104.266548 
	C695.435669,104.475182 701.114014,104.550667 706.758240,104.245903 
	C710.613708,104.037727 712.080933,105.756607 712.782532,109.208023 
	C713.762817,114.029839 714.552490,114.271271 718.421204,111.392586 
	C726.534241,105.355759 735.250305,101.540604 745.730896,102.986610 
	C755.905701,104.390419 762.027283,111.585541 760.233704,121.717323 
	C757.515930,137.070419 754.111328,152.301392 751.053528,167.595245 
	C750.311890,171.304794 748.404968,172.777237 744.457214,172.601868 
	C737.312256,172.284515 730.135315,172.308929 722.986816,172.583649 
	C718.273621,172.764786 717.675659,170.660034 718.559204,166.762589 
	C721.274231,154.786743 723.901001,142.790283 726.454895,130.779053 
	C726.970459,128.354614 727.243347,125.828758 727.227966,123.352150 
	C727.200134,118.881149 724.304016,116.890823 720.272583,118.629074 
	C716.306519,120.339188 713.478027,122.927559 712.743896,127.729591 
	C711.691711,134.611618 709.945068,141.387466 708.355103,148.608826 
z"/>
<path fill="#F7B83B" opacity="1.000000" stroke="none" 
	d="
M490.454803,150.076569 
	C490.311523,150.499802 490.168274,150.923035 489.754211,151.869629 
	C489.346191,153.263458 489.208893,154.133926 489.071594,155.004395 
	C488.247314,159.239197 487.437775,163.476944 486.594147,167.707886 
	C485.907776,171.150040 483.989319,172.686508 480.280029,172.579361 
	C472.625641,172.358261 464.960297,172.537018 457.299652,172.504822 
	C451.925049,172.482239 451.143036,171.624481 452.256989,166.289352 
	C454.631744,154.915726 457.159760,143.574051 459.627014,132.219727 
	C462.765106,117.778534 465.920441,103.341042 469.014008,88.890335 
	C469.246338,87.805084 469.044495,86.626884 469.044495,84.765495 
	C461.115723,84.765495 453.389496,84.765495 444.751465,84.765495 
	C445.742126,80.557335 446.194702,77.096519 447.473541,73.974113 
	C447.971497,72.758263 450.327545,71.615746 451.843842,71.607101 
	C476.990356,71.463600 502.137939,71.513054 527.285278,71.499023 
	C530.970276,71.496971 532.196411,72.641876 531.173157,76.690788 
	C529.164490,84.638489 529.447754,84.710114 521.378113,84.710449 
	C518.380432,84.710579 515.382751,84.710373 512.385071,84.710480 
	C503.277161,84.710808 503.277161,84.710846 502.263733,94.300827 
	C501.109741,98.964745 500.244537,103.016434 499.265503,107.390137 
	C499.154175,108.164925 499.156647,108.617706 498.887939,109.294113 
	C498.300964,111.364235 497.985168,113.210747 497.669373,115.057259 
	C497.459930,116.111816 497.250488,117.166367 496.779907,118.812630 
	C496.379395,120.273262 496.239960,121.142181 496.100555,122.011108 
	C495.920685,123.557503 495.740784,125.103905 495.310913,127.219681 
	C494.782928,128.866821 494.504913,129.944565 494.226868,131.022308 
	C494.133331,131.459778 494.039764,131.897247 493.743378,132.908752 
	C493.238861,135.353455 492.937164,137.224152 492.635468,139.094833 
	C492.532837,139.859238 492.430206,140.623627 492.173492,142.015472 
	C491.497864,145.120804 490.976318,147.598679 490.454803,150.076569 
z"/>
<path fill="#F7B93C" opacity="1.000000" stroke="none" 
	d="
M656.868652,140.746704 
	C646.235413,140.747299 636.078186,140.900330 625.929504,140.671890 
	C622.029541,140.584106 620.349915,142.242264 620.205078,145.802597 
	C620.063293,149.287720 619.771545,152.840179 620.286621,156.251175 
	C620.597351,158.309418 622.015564,161.443893 623.481567,161.790985 
	C625.647583,162.303833 628.780457,161.385162 630.623901,159.949234 
	C633.023560,158.080017 634.915527,155.294327 636.371277,152.555084 
	C637.730957,149.996567 639.265686,148.926239 642.167297,148.998611 
	C649.117310,149.171997 656.074585,149.054642 662.949097,149.054642 
	C664.318665,159.280273 659.748596,167.260056 650.687134,169.953842 
	C635.902283,174.349075 620.778870,175.002472 606.000977,170.621582 
	C596.005371,167.658386 589.800232,159.848404 588.606262,149.457611 
	C585.925049,126.122543 597.899475,109.043053 621.406921,104.308289 
	C632.636047,102.046562 643.836060,102.163986 655.057312,104.384026 
	C665.541992,106.458336 672.334656,116.634315 670.129517,127.127014 
	C669.855774,128.429306 669.528137,129.720154 669.239380,131.019394 
	C667.285522,139.811951 666.151917,140.740723 656.868652,140.746704 
M635.767029,113.244247 
	C629.489746,114.913757 627.133362,120.058250 625.121887,125.422050 
	C624.322815,127.552719 623.891541,129.821289 623.292786,132.027054 
	C625.864929,132.602081 628.463257,133.733780 631.002747,133.614365 
	C634.344666,133.457214 639.171753,135.827774 640.662476,131.225494 
	C641.938721,127.285400 641.868591,122.660194 641.306641,118.484306 
	C641.046326,116.549568 638.200256,114.962791 635.767029,113.244247 
z"/>
<path fill="#F7B83B" opacity="1.000000" stroke="none" 
	d="
M512.745850,153.969604 
	C512.843140,153.533844 512.940430,153.098083 513.220886,152.119324 
	C513.377502,151.030807 513.351074,150.485306 513.324585,149.939789 
	C513.496582,149.505981 513.668640,149.072189 514.097534,148.148560 
	C514.390625,147.085587 514.426819,146.512421 514.463013,145.939255 
	C514.648987,144.889053 514.834961,143.838852 515.256958,142.169998 
	C515.767334,140.014374 516.041809,138.477417 516.316223,136.940460 
	C516.523010,135.882614 516.729797,134.824768 517.208374,133.132751 
	C518.860168,125.656105 520.240295,118.813637 521.744507,111.612122 
	C521.906738,110.498322 521.944824,109.743553 522.243408,108.778961 
	C523.134583,107.116043 523.765259,105.662949 524.802063,104.257889 
	C527.122375,104.269821 529.036682,104.233719 531.268433,104.377541 
	C533.730774,104.430771 535.875610,104.304085 538.020447,104.177399 
	C540.747314,104.282356 543.474182,104.387306 546.895020,104.541397 
	C548.077271,104.684425 548.565674,104.778305 549.068970,105.212799 
	C549.406799,106.361259 549.729736,107.169106 550.052673,107.976959 
	C550.057129,108.425941 550.061523,108.874939 550.085693,110.017471 
	C551.114868,111.985016 548.643188,116.450249 553.392090,114.296303 
	C556.392944,111.603889 559.393799,108.911476 563.015320,106.078339 
	C564.261475,105.385963 564.886963,104.834305 565.512512,104.282654 
	C572.167053,102.947121 578.788879,101.136749 585.462097,104.402855 
	C587.907532,105.599731 588.991943,106.981300 588.316162,109.854103 
	C586.379822,118.086266 584.613770,126.359924 582.892700,134.640549 
	C582.294373,137.519333 580.917175,139.132248 577.817078,138.866653 
	C577.156555,138.810074 576.486511,138.876053 575.821655,138.856979 
	C572.507507,138.761963 568.351807,139.816788 566.133911,138.206253 
	C564.199951,136.801895 564.682983,132.309769 563.672302,129.326187 
	C562.640869,126.281235 563.123474,121.803688 558.040649,121.792374 
	C553.304382,121.781837 551.416992,124.934731 550.542664,128.997711 
	C547.961365,140.991974 545.265686,152.964417 542.905090,165.002335 
	C541.524048,172.045212 541.281311,172.511139 533.945190,172.512924 
	C527.291138,172.514557 520.629700,172.321472 513.985718,172.580673 
	C509.613434,172.751251 508.788391,170.895859 509.718231,167.129837 
	C510.431000,164.242889 510.865143,161.287155 511.675385,157.773804 
	C512.200317,156.113602 512.473022,155.041595 512.745850,153.969604 
z"/>







<path fill="#F4EFE6" opacity="1.000000" stroke="none" 
	d="
M489.389160,154.960693 
	C489.208893,154.133926 489.346191,153.263458 489.766174,152.206985 
	C489.934875,152.986313 489.820801,153.951660 489.389160,154.960693 
z"/>
<path fill="#F5EFE3" opacity="1.000000" stroke="none" 
	d="
M512.391846,154.067032 
	C512.473022,155.041595 512.200317,156.113602 511.630310,157.373352 
	C511.567963,156.428879 511.802917,155.296677 512.391846,154.067032 
z"/>
<path fill="#F5EFE3" opacity="1.000000" stroke="none" 
	d="
M514.224121,146.001938 
	C514.426819,146.512421 514.390625,147.085587 514.079956,147.795380 
	C513.865295,147.309540 513.925232,146.687073 514.224121,146.001938 
z"/>
<path fill="#F5EFE3" opacity="1.000000" stroke="none" 
	d="
M513.100098,150.025330 
	C513.351074,150.485306 513.377502,151.030807 513.195679,151.783676 
	C512.950073,151.364319 512.912842,150.737595 513.100098,150.025330 
z"/>
<path fill="#F5EFE3" opacity="1.000000" stroke="none" 
	d="
M565.151855,104.214836 
	C564.886963,104.834305 564.261475,105.385963 563.313354,105.925339 
	C563.591003,105.324387 564.191101,104.735703 565.151855,104.214836 
z"/>
<path fill="#EDEFF0" opacity="1.000000" stroke="none" 
	d="
M160.368103,67.017212 
	C160.606094,67.530670 160.578979,68.100815 160.310638,68.844650 
	C160.080612,68.370193 160.091797,67.722038 160.368103,67.017212 
z"/>
</svg>